<svg id="Ebene_1" data-name="Ebene 1" xmlns="http://www.w3.org/2000/svg" width="18" height="16" viewBox="0 0 18 16"><title>frappant_Icon_RGB</title><rect x="4.6" y="14.3" width="9.4" height="1.71" style="fill:#b11640"/><polygon points="7.2 1 4.6 1 5 9.2 6.9 9.2 7.2 1" style="fill:#b11640"/><path d="M5.9,10.1a1.3,1.3,0,1,0,0,2.6,1.3,1.3,0,1,0,0-2.6" style="fill:#b11640"/><path d="M14,0.7H13.4c-2.4,0-3.2,1.1-3.2,3.5V4.7H8.7V6.4h1.5v4.4H8.7v1.7h5.2V10.9H12.4V6.4h1.5V4.7H12.4V4.2c0-1.1.2-1.6,1.1-1.6H14V0.7Z" style="fill:#b11640"/></svg>