<svg id="Ebene_1" data-name="Ebene 1" xmlns="http://www.w3.org/2000/svg" width="150" height="150" viewBox="0 0 150 150"><title>tx_frpformanswers_domain_model_formentry</title><path d="M75,85.9l-9.5-8.3L38.3,100.9a5.6,5.6,0,0,0,3.8,1.5h65.8a5.5,5.5,0,0,0,3.8-1.5L84.5,77.6Z" style="fill:#3b7eb0"/><path d="M111.7,49a5.5,5.5,0,0,0-3.8-1.5H42.1A5.5,5.5,0,0,0,38.3,49L75,80.4Z" style="fill:#9dbfda"/><polygon points="36.6 52.3 36.6 97.9 63.1 75.3 36.6 52.3" style="fill:#3b7eb0"/><polygon points="86.9 75.3 113.4 97.9 113.4 52.3 86.9 75.3" style="fill:#3b7eb0"/></svg>