<svg id="Ebene_1" data-name="Ebene 1" xmlns="http://www.w3.org/2000/svg" width="64" height="64" viewBox="0 0 64 64"><title>user_mod_formanswers</title><path d="M0,0H64V64H0Z" style="fill:#3b7eb0"/><path d="M17,19H41V44H17Z" style="fill:#fff"/><path d="M23,38h6v3H23Z" style="fill:#3b7eb0"/><path d="M30,38h7v3H30Z" style="fill:#3b7eb0;opacity:0.5;isolation:isolate"/><path d="M23,22H34v2H23Zm0,9h2v2H23Zm0,3h2v2H23Z" style="fill:#3b7eb0"/><path d="M26,31H37v2H26Zm0,3H37v2H26Zm-3-9H37v5H23Z" style="fill:#3b7eb0;opacity:0.5;isolation:isolate"/><path d="M17,19h2.9v2.8H17Z" style="fill:#3b7eb0"/><path d="M18,19h1V43.9H18Z" style="fill:#3b7eb0;opacity:0.5;isolation:isolate"/><polygon points="59 20.3 53 14 53 18 47 18 47 23 53 23 53 27.1 59 20.3" style="fill:#fff"/><polygon points="59 38.3 53 32 53 36 47 36 47 41 53 41 53 45.1 59 38.3" style="fill:#fff"/><path d="M42,15V47H16V15H42m1-1H15V48H43V14Z" style="fill:#fff"/><rect x="14" y="15" width="1" height="34" style="fill:#9dbfda"/><rect x="28" y="35" width="1" height="27" transform="translate(77 20) rotate(90)" style="fill:#9dbfda"/></svg>